<svg width="16" height="16" viewBox="0 0 16 16" fill="none" xmlns="http://www.w3.org/2000/svg">
<path fill-rule="evenodd" clip-rule="evenodd" d="M15.5823 12.4241C14.1551 14.5736 11.7333 16 8.94811 16C4.55522 16 1 12.4016 1 8.01103C1 3.57587 4.55522 0 8.94811 0C11.7333 0 14.1787 1.42545 15.6049 3.57587C15.8761 3.37147 12.4577 5.77139 12.4577 5.77139C11.7333 4.59349 10.4199 3.80135 8.94811 3.80135C6.63813 3.80135 4.82643 5.67973 4.82643 8.01103C4.82643 10.3418 6.63813 12.1977 8.94811 12.1977C10.4425 12.1977 11.7333 11.4286 12.4803 10.2521L15.5823 12.4241Z" fill="black"/>
</svg>
